<svg width="24" height="25" viewBox="0 0 24 25" fill="none" xmlns="http://www.w3.org/2000/svg">
<path d="M7 11.6641H9V13.6641H7V11.6641ZM7 15.6641H9V17.6641H7V15.6641ZM11 11.6641H13V13.6641H11V11.6641ZM11 15.6641H13V17.6641H11V15.6641ZM15 11.6641H17V13.6641H15V11.6641ZM15 15.6641H17V17.6641H15V15.6641Z" fill="#18181B"/>
<path d="M5 22.6641H19C20.103 22.6641 21 21.7671 21 20.6641V6.66406C21 5.56106 20.103 4.66406 19 4.66406H17V2.66406H15V4.66406H9V2.66406H7V4.66406H5C3.897 4.66406 3 5.56106 3 6.66406V20.6641C3 21.7671 3.897 22.6641 5 22.6641ZM19 8.66406L19.001 20.6641H5V8.66406H19Z" fill="#18181B"/>
</svg>
