<svg width="19" height="19" viewBox="0 0 19 19" fill="none" xmlns="http://www.w3.org/2000/svg">
<path d="M9.5568 1.57422C5.21713 1.57422 1.68652 5.10483 1.68652 9.4445C1.68652 13.7842 5.21713 17.3148 9.5568 17.3148C13.8965 17.3148 17.4271 13.7842 17.4271 9.4445C17.4271 5.10483 13.8965 1.57422 9.5568 1.57422ZM9.5568 15.7407C6.08522 15.7407 3.26058 12.9161 3.26058 9.4445C3.26058 5.97292 6.08522 3.14827 9.5568 3.14827C13.0284 3.14827 15.853 5.97292 15.853 9.4445C15.853 12.9161 13.0284 15.7407 9.5568 15.7407Z" fill="#EC4899"/>
<path d="M7.98121 10.6939L6.17183 8.88764L5.06055 10.0021L7.98278 12.918L13.2606 7.6402L12.1477 6.52734L7.98121 10.6939Z" fill="#EC4899"/>
</svg>
