<svg width="24" height="25" viewBox="0 0 24 25" fill="none" xmlns="http://www.w3.org/2000/svg">
<path d="M21 5.66504H3C2.73478 5.66504 2.48043 5.7704 2.29289 5.95793C2.10536 6.14547 2 6.39982 2 6.66504V10.665H2.893C3.889 10.665 4.813 11.346 4.973 12.329C5.02174 12.6161 5.00726 12.9103 4.93056 13.1912C4.85387 13.472 4.71681 13.7328 4.52894 13.9552C4.34108 14.1776 4.10694 14.3564 3.84287 14.479C3.57879 14.6016 3.29115 14.6651 3 14.665H2V18.665C2 18.9303 2.10536 19.1846 2.29289 19.3721C2.48043 19.5597 2.73478 19.665 3 19.665H21C21.2652 19.665 21.5196 19.5597 21.7071 19.3721C21.8946 19.1846 22 18.9303 22 18.665V14.665H21C20.7089 14.6651 20.4212 14.6016 20.1571 14.479C19.8931 14.3564 19.6589 14.1776 19.4711 13.9552C19.2832 13.7328 19.1461 13.472 19.0694 13.1912C18.9927 12.9103 18.9783 12.6161 19.027 12.329C19.187 11.346 20.111 10.665 21.107 10.665H22V6.66504C22 6.39982 21.8946 6.14547 21.7071 5.95793C21.5196 5.7704 21.2652 5.66504 21 5.66504ZM9 9.66504C9.26522 9.66504 9.51957 9.7704 9.70711 9.95793C9.89464 10.1455 10 10.3998 10 10.665C10 10.9303 9.89464 11.1846 9.70711 11.3721C9.51957 11.5597 9.26522 11.665 9 11.665C8.73478 11.665 8.48043 11.5597 8.29289 11.3721C8.10536 11.1846 8 10.9303 8 10.665C8 10.3998 8.10536 10.1455 8.29289 9.95793C8.48043 9.7704 8.73478 9.66504 9 9.66504ZM8.2 16.065L14.2 8.06504L15.8 9.26504L9.8 17.265L8.2 16.065ZM15 15.665C14.7348 15.665 14.4804 15.5597 14.2929 15.3721C14.1054 15.1846 14 14.9303 14 14.665C14 14.3998 14.1054 14.1455 14.2929 13.9579C14.4804 13.7704 14.7348 13.665 15 13.665C15.2652 13.665 15.5196 13.7704 15.7071 13.9579C15.8946 14.1455 16 14.3998 16 14.665C16 14.9303 15.8946 15.1846 15.7071 15.3721C15.5196 15.5597 15.2652 15.665 15 15.665Z" fill="#EC4899"/>
</svg>
