<svg width="24" height="25" viewBox="0 0 24 25" fill="none" xmlns="http://www.w3.org/2000/svg">
<path d="M12 8.16504V13.165H17V11.165H14V8.16504H12Z" fill="#EC4899"/>
<path d="M21.292 8.66167C20.8409 7.59172 20.1861 6.61969 19.364 5.79968C18.1196 4.55524 16.5377 3.70278 14.814 3.34768C13.6176 3.10416 12.3844 3.10416 11.188 3.34768C9.46267 3.70051 7.87947 4.55367 6.636 5.80068C5.81589 6.62156 5.16133 7.59253 4.708 8.66068C4.23911 9.76929 3.99832 10.961 4 12.1647L4.001 12.1897H2L5 16.1647L8 12.1897H6.001L6 12.1647C5.99712 10.77 6.41346 9.40675 7.195 8.25168C7.69912 7.50636 8.34095 6.86419 9.086 6.35968C9.84394 5.84908 10.6941 5.49107 11.589 5.30567C13.4075 4.93178 15.3001 5.2953 16.8507 6.31634C18.4013 7.33739 19.483 8.93237 19.858 10.7507C20.0466 11.6826 20.0466 12.6428 19.858 13.5747C19.675 14.4703 19.3168 15.3209 18.804 16.0777C18.554 16.4487 18.267 16.7977 17.95 17.1137C17.3112 17.7517 16.5558 18.2613 15.725 18.6147C15.3018 18.7936 14.862 18.9302 14.412 19.0227C13.4804 19.2112 12.5206 19.2112 11.589 19.0227C10.6943 18.8392 9.84447 18.4814 9.088 17.9697C8.71595 17.7183 8.36871 17.432 8.051 17.1147L6.637 18.5287C7.47212 19.3649 8.46403 20.0282 9.5559 20.4806C10.6478 20.9329 11.8181 21.1654 13 21.1647C14.2031 21.1642 15.3939 20.9238 16.503 20.4577C18.1106 19.7775 19.486 18.6449 20.462 17.1977C21.4665 15.7116 22.0022 13.9584 22 12.1647C22.0025 10.9612 21.7617 9.76969 21.292 8.66167Z" fill="#EC4899"/>
</svg>
