<svg width="29" height="29" viewBox="0 0 29 29" fill="none" xmlns="http://www.w3.org/2000/svg">
<path fill-rule="evenodd" clip-rule="evenodd" d="M14.3125 3.8457C11.448 3.8457 11.0894 3.85766 9.96437 3.90898C8.84148 3.96031 8.07437 4.13891 7.40359 4.39977C6.70047 4.66414 6.06273 5.07898 5.53539 5.61617C4.99906 6.14291 4.58396 6.78019 4.31898 7.48367C4.05953 8.15445 3.88023 8.92227 3.82891 10.0452C3.77828 11.1695 3.76562 11.5273 3.76562 14.3926C3.76562 17.2578 3.77758 17.6157 3.82891 18.7407C3.88023 19.8636 4.05883 20.6307 4.31969 21.3015C4.58406 22.0046 4.99891 22.6423 5.53609 23.1697C6.06284 23.706 6.70012 24.1211 7.40359 24.3861C8.07437 24.6462 8.84148 24.8248 9.96437 24.8762C11.0894 24.9275 11.448 24.9395 14.3125 24.9395C17.177 24.9395 17.5356 24.9275 18.6606 24.8762C19.7835 24.8248 20.5506 24.6462 21.2214 24.3854C21.9245 24.121 22.5623 23.7062 23.0896 23.169C23.6259 22.6422 24.041 22.005 24.306 21.3015C24.5662 20.6307 24.7448 19.8636 24.7961 18.7407C24.8474 17.6157 24.8594 17.2571 24.8594 14.3926C24.8594 11.528 24.8474 11.1695 24.7961 10.0445C24.7448 8.92156 24.5662 8.15445 24.3053 7.48367C24.0405 6.77989 23.6254 6.14234 23.0889 5.61547C22.5622 5.07914 21.9249 4.66404 21.2214 4.39906C20.5506 4.13961 19.7828 3.96031 18.6599 3.90898C17.5356 3.85836 17.1777 3.8457 14.3125 3.8457ZM14.3125 5.74625C17.1285 5.74625 17.4625 5.7568 18.5748 5.80742C19.6028 5.85453 20.1611 6.02539 20.533 6.17094C21.0252 6.36148 21.3768 6.5907 21.7459 6.95914C22.1151 7.32828 22.3436 7.67984 22.5341 8.17203C22.679 8.54398 22.8505 9.10227 22.8977 10.1302C22.9483 11.2426 22.9588 11.5766 22.9588 14.3926C22.9588 17.2086 22.9483 17.5426 22.8977 18.6549C22.8505 19.6829 22.6797 20.2412 22.5341 20.6131C22.3653 21.0712 22.096 21.4857 21.7459 21.826C21.4057 22.1762 20.9912 22.4455 20.533 22.6142C20.1611 22.7591 19.6028 22.9306 18.5748 22.9777C17.4625 23.0284 17.1292 23.0389 14.3125 23.0389C11.4958 23.0389 11.1625 23.0284 10.0502 22.9777C9.02219 22.9306 8.46391 22.7598 8.09195 22.6142C7.63384 22.4454 7.21938 22.1761 6.87906 21.826C6.52903 21.4857 6.2597 21.0712 6.09086 20.6131C5.94602 20.2412 5.77445 19.6829 5.72734 18.6549C5.67672 17.5426 5.66617 17.2086 5.66617 14.3926C5.66617 11.5766 5.67672 11.2426 5.72734 10.1302C5.77445 9.10227 5.94531 8.54398 6.09086 8.17203C6.28141 7.67984 6.51062 7.32828 6.87906 6.95914C7.21933 6.60902 7.6338 6.33967 8.09195 6.17094C8.46391 6.02609 9.02219 5.85453 10.0502 5.80742C11.1625 5.7568 11.4965 5.74625 14.3125 5.74625V5.74625Z" fill="white"/>
<path fill-rule="evenodd" clip-rule="evenodd" d="M14.3127 17.9119C13.8506 17.9119 13.3929 17.8209 12.966 17.644C12.539 17.4672 12.1511 17.208 11.8243 16.8812C11.4975 16.5544 11.2383 16.1665 11.0614 15.7395C10.8846 15.3125 10.7936 14.8549 10.7936 14.3928C10.7936 13.9306 10.8846 13.473 11.0614 13.0461C11.2383 12.6191 11.4975 12.2311 11.8243 11.9044C12.1511 11.5776 12.539 11.3184 12.966 11.1415C13.3929 10.9647 13.8506 10.8736 14.3127 10.8736C15.246 10.8736 16.1411 11.2444 16.8011 11.9044C17.4611 12.5643 17.8318 13.4594 17.8318 14.3928C17.8318 15.3261 17.4611 16.2212 16.8011 16.8812C16.1411 17.5411 15.246 17.9119 14.3127 17.9119V17.9119ZM14.3127 8.97168C12.8749 8.97168 11.4961 9.54283 10.4794 10.5595C9.46275 11.5761 8.8916 12.955 8.8916 14.3928C8.8916 15.8305 9.46275 17.2094 10.4794 18.2261C11.4961 19.2427 12.8749 19.8139 14.3127 19.8139C15.7505 19.8139 17.1293 19.2427 18.146 18.2261C19.1626 17.2094 19.7338 15.8305 19.7338 14.3928C19.7338 12.955 19.1626 11.5761 18.146 10.5595C17.1293 9.54283 15.7505 8.97168 14.3127 8.97168V8.97168ZM21.3109 8.87324C21.3109 9.2131 21.1759 9.53904 20.9356 9.77936C20.6953 10.0197 20.3693 10.1547 20.0294 10.1547C19.6896 10.1547 19.3636 10.0197 19.1233 9.77936C18.883 9.53904 18.748 9.2131 18.748 8.87324C18.748 8.53338 18.883 8.20744 19.1233 7.96712C19.3636 7.72681 19.6896 7.5918 20.0294 7.5918C20.3693 7.5918 20.6953 7.72681 20.9356 7.96712C21.1759 8.20744 21.3109 8.53338 21.3109 8.87324" fill="white"/>
</svg>
