<svg width="26" height="27" viewBox="0 0 26 27" fill="none" xmlns="http://www.w3.org/2000/svg">
<path d="M22.7657 4.86914H3.3492C3.06311 4.86914 2.78874 4.98279 2.58645 5.18508C2.38416 5.38738 2.27051 5.66175 2.27051 5.94784V21.0496C2.27051 21.3356 2.38416 21.61 2.58645 21.8123C2.78874 22.0146 3.06311 22.1283 3.3492 22.1283H22.7657C23.0518 22.1283 23.3262 22.0146 23.5285 21.8123C23.7308 21.61 23.8444 21.3356 23.8444 21.0496V5.94784C23.8444 5.66175 23.7308 5.38738 23.5285 5.18508C23.3262 4.98279 23.0518 4.86914 22.7657 4.86914ZM21.687 16.7348C20.8287 16.7348 20.0056 17.0757 19.3988 17.6826C18.7919 18.2895 18.4509 19.1126 18.4509 19.9709H7.66398C7.66398 19.1126 7.32304 18.2895 6.71615 17.6826C6.10927 17.0757 5.28616 16.7348 4.4279 16.7348V10.2626C5.28616 10.2626 6.10927 9.92167 6.71615 9.31479C7.32304 8.7079 7.66398 7.88479 7.66398 7.02653H18.4509C18.4509 7.88479 18.7919 8.7079 19.3988 9.31479C20.0056 9.92167 20.8287 10.2626 21.687 10.2626V16.7348Z" fill="#EC4899"/>
<path d="M13.056 9.18359C10.6764 9.18359 8.74121 11.1188 8.74121 13.4984C8.74121 15.878 10.6764 17.8132 13.056 17.8132C15.4356 17.8132 17.3708 15.878 17.3708 13.4984C17.3708 11.1188 15.4356 9.18359 13.056 9.18359ZM13.056 15.6558C11.8662 15.6558 10.8986 14.6882 10.8986 13.4984C10.8986 12.3086 11.8662 11.341 13.056 11.341C14.2458 11.341 15.2134 12.3086 15.2134 13.4984C15.2134 14.6882 14.2458 15.6558 13.056 15.6558Z" fill="#EC4899"/>
</svg>
