<svg width="25" height="25" viewBox="0 0 25 25" fill="none" xmlns="http://www.w3.org/2000/svg">
<path d="M12.5627 2.99512C7.04874 2.99512 2.56274 7.48112 2.56274 12.9951C2.56274 18.5091 7.04874 22.9951 12.5627 22.9951C18.0767 22.9951 22.5627 18.5091 22.5627 12.9951C22.5627 7.48112 18.0767 2.99512 12.5627 2.99512ZM12.5627 20.9951C8.15174 20.9951 4.56274 17.4061 4.56274 12.9951C4.56274 8.58412 8.15174 4.99512 12.5627 4.99512C16.9737 4.99512 20.5627 8.58412 20.5627 12.9951C20.5627 17.4061 16.9737 20.9951 12.5627 20.9951Z" fill="#9CA3AF"/>
<path d="M13.5627 7.99512H11.5627V13.4091L14.8557 16.7021L16.2697 15.2881L13.5627 12.5811V7.99512Z" fill="#9CA3AF"/>
</svg>
