<svg width="29" height="29" viewBox="0 0 29 29" fill="none" xmlns="http://www.w3.org/2000/svg">
<path d="M23.5068 9.61119C23.5211 9.81781 23.5211 10.0244 23.5211 10.233C23.5211 16.5867 18.6841 23.9146 9.83945 23.9146V23.9108C7.22671 23.9146 4.66825 23.1662 2.46875 21.7551C2.84866 21.8008 3.23048 21.8236 3.61325 21.8246C5.77847 21.8265 7.8818 21.1 9.58522 19.7622C7.52759 19.7232 5.72324 18.3816 5.09291 16.423C5.8137 16.562 6.55639 16.5334 7.26384 16.3401C5.02055 15.8869 3.40663 13.9159 3.40663 11.6269C3.40663 11.606 3.40663 11.586 3.40663 11.566C4.07505 11.9383 4.82345 12.1449 5.58899 12.1677C3.47614 10.7557 2.82486 7.9449 4.10076 5.74731C6.5421 8.75138 10.1441 10.5776 14.0109 10.7709C13.6233 9.10083 14.1527 7.35075 15.402 6.17674C17.3387 4.3562 20.3847 4.44951 22.2052 6.38526C23.2821 6.17293 24.3142 5.77778 25.2588 5.21791C24.8998 6.33099 24.1486 7.27648 23.145 7.8773C24.0981 7.76494 25.0293 7.50976 25.9062 7.12033C25.2607 8.08773 24.4475 8.93039 23.5068 9.61119Z" fill="white"/>
</svg>
