<svg width="99" height="100" viewBox="0 0 54 55" fill="none" xmlns="http://www.w3.org/2000/svg">
<path d="M26.8943 4.80322C14.5463 4.80322 4.5 14.8967 4.5 27.3032C4.5 39.7097 14.5935 49.8032 27 49.8032C39.4065 49.8032 49.5 39.7097 49.5 27.3032C49.5 14.8967 39.3592 4.80322 26.8943 4.80322ZM27 45.3032C17.0753 45.3032 9 37.228 9 27.3032C9 17.3785 17.0258 9.30322 26.8943 9.30322C36.8797 9.30322 45 17.3785 45 27.3032C45 37.228 36.9248 45.3032 27 45.3032Z" fill="#18181B"/>
<path d="M24.75 16.0532H29.25V31.8032H24.75V16.0532ZM24.75 34.0532H29.25V38.5532H24.75V34.0532Z" fill="#18181B"/>
</svg>
