<svg width="29" height="29" viewBox="0 0 29 29" fill="none" xmlns="http://www.w3.org/2000/svg">
<path fill-rule="evenodd" clip-rule="evenodd" d="M23.5688 6.67514C24.5767 6.94592 25.374 7.74322 25.6448 8.75112C26.1412 10.5864 26.1562 14.3924 26.1562 14.3924C26.1562 14.3924 26.1562 18.2134 25.6598 20.0336C25.389 21.0415 24.5917 21.8388 23.5838 22.1096C21.7636 22.606 14.4375 22.606 14.4375 22.606C14.4375 22.606 7.1114 22.606 5.29116 22.1096C4.28325 21.8388 3.48596 21.0415 3.21518 20.0336C2.71875 18.1983 2.71875 14.3924 2.71875 14.3924C2.71875 14.3924 2.71875 10.5864 3.20014 8.76616C3.47092 7.75826 4.26821 6.96097 5.27612 6.69019C7.09636 6.19375 14.4225 6.17871 14.4225 6.17871C14.4225 6.17871 21.7486 6.17871 23.5688 6.67514ZM18.1682 14.3924L12.0907 17.9125V10.8722L18.1682 14.3924Z" fill="white"/>
</svg>
