<svg width="35" height="36" viewBox="0 0 35 36" fill="none" xmlns="http://www.w3.org/2000/svg">
<path d="M17.5013 3.65088C9.59568 3.65088 2.91797 10.3286 2.91797 18.2342C2.91797 26.1398 9.59568 32.8175 17.5013 32.8175C25.4069 32.8175 32.0846 26.1398 32.0846 18.2342C32.0846 10.3286 25.4069 3.65088 17.5013 3.65088ZM17.5013 10.9425C20.0198 10.9425 21.8763 12.7975 21.8763 15.3175C21.8763 17.8375 20.0198 19.6925 17.5013 19.6925C14.9842 19.6925 13.1263 17.8375 13.1263 15.3175C13.1263 12.7975 14.9842 10.9425 17.5013 10.9425ZM10.0551 25.1934C11.3632 23.2684 13.5448 21.985 16.043 21.985H18.9596C21.4592 21.985 23.6394 23.2684 24.9476 25.1934C23.0838 27.1884 20.4398 28.4425 17.5013 28.4425C14.5628 28.4425 11.9188 27.1884 10.0551 25.1934Z" fill="#9CA3AF"/>
</svg>
